<svg width="44" height="50" viewBox="0 0 44 50" fill="none" xmlns="http://www.w3.org/2000/svg">
<path d="M38.9167 49.1666H5.08333C2.41396 49.1666 0.25 47.0026 0.25 44.3332V10.4999C0.25 7.83054 2.41396 5.66658 5.08333 5.66658H9.91667V3.24992C9.91667 1.91523 10.9986 0.833252 12.3333 0.833252C13.668 0.833252 14.75 1.91523 14.75 3.24992V5.66658H29.25V3.24992C29.25 1.91523 30.332 0.833252 31.6667 0.833252C33.0014 0.833252 34.0833 1.91523 34.0833 3.24992V5.66658H38.9167C41.586 5.66658 43.75 7.83054 43.75 10.4999V44.3332C43.75 47.0026 41.586 49.1666 38.9167 49.1666ZM5.08333 20.1666V43.3333C5.08333 43.8855 5.53105 44.3332 6.08333 44.3332H37.9167C38.469 44.3332 38.9167 43.8855 38.9167 43.3332V20.1666H5.08333ZM6.08333 10.4999C5.53105 10.4999 5.08333 10.9476 5.08333 11.4999V15.3333H38.9167V11.4999C38.9167 10.9476 38.469 10.4999 37.9167 10.4999H6.08333ZM34.0833 37.0832C34.0833 38.4179 33.0014 39.4999 31.6667 39.4999C30.332 39.4999 29.25 38.4179 29.25 37.0832C29.25 35.7486 30.332 34.6666 31.6667 34.6666C33.0014 34.6666 34.0833 35.7486 34.0833 37.0832ZM24.4167 37.0832C24.4167 38.4179 23.3347 39.4999 22 39.4999C20.6653 39.4999 19.5833 38.4179 19.5833 37.0832C19.5833 35.7486 20.6653 34.6666 22 34.6666C23.3347 34.6666 24.4167 35.7486 24.4167 37.0832ZM14.75 37.0832C14.75 38.4179 13.668 39.4999 12.3333 39.4999C10.9986 39.4999 9.91667 38.4179 9.91667 37.0832C9.91667 35.7486 10.9986 34.6666 12.3333 34.6666C13.668 34.6666 14.75 35.7486 14.75 37.0832ZM34.0833 27.4166C34.0833 28.7513 33.0014 29.8333 31.6667 29.8333C30.332 29.8333 29.25 28.7513 29.25 27.4166C29.25 26.0819 30.332 24.9999 31.6667 24.9999C33.0014 24.9999 34.0833 26.0819 34.0833 27.4166ZM24.4167 27.4166C24.4167 28.7513 23.3347 29.8333 22 29.8333C20.6653 29.8333 19.5833 28.7513 19.5833 27.4166C19.5833 26.0819 20.6653 24.9999 22 24.9999C23.3347 24.9999 24.4167 26.0819 24.4167 27.4166ZM14.75 27.4166C14.75 28.7513 13.668 29.8333 12.3333 29.8333C10.9986 29.8333 9.91667 28.7513 9.91667 27.4166C9.91667 26.0819 10.9986 24.9999 12.3333 24.9999C13.668 24.9999 14.75 26.0819 14.75 27.4166Z" fill="url(#paint0_linear_41_660)"/>
<defs>
<linearGradient id="paint0_linear_41_660" x1="22.15" y1="-7.17991" x2="25.4972" y2="55.0875" gradientUnits="userSpaceOnUse">
<stop stop-color="#9C2CF3"/>
<stop offset="1" stop-color="#3A49F9"/>
</linearGradient>
</defs>
</svg>
