<svg width="40" height="40" viewBox="0 0 46 46" fill="none" xmlns="http://www.w3.org/2000/svg">
<path d="M36.4167 42.1666H9.58333C7.46624 42.1666 5.75 40.4503 5.75 38.3333V11.4999C5.75 9.38283 7.46624 7.66659 9.58333 7.66659H13.4167V5.74992C13.4167 4.69137 14.2748 3.83325 15.3333 3.83325C16.3919 3.83325 17.25 4.69137 17.25 5.74992V7.66659H28.75V5.74992C28.75 4.69137 29.6081 3.83325 30.6667 3.83325C31.7252 3.83325 32.5833 4.69137 32.5833 5.74992V7.66659H36.4167C38.5338 7.66659 40.25 9.38283 40.25 11.4999V38.3333C40.25 40.4503 38.5338 42.1666 36.4167 42.1666ZM9.58333 19.1666V37.3333C9.58333 37.8855 10.031 38.3333 10.5833 38.3333H35.4167C35.969 38.3333 36.4167 37.8855 36.4167 37.3333V19.1666H9.58333ZM10.5833 11.4999C10.031 11.4999 9.58333 11.9476 9.58333 12.4999V15.3333H36.4167V12.4999C36.4167 11.9476 35.969 11.4999 35.4167 11.4999H10.5833ZM32.5833 32.5833C32.5833 33.6418 31.7252 34.4999 30.6667 34.4999C29.6081 34.4999 28.75 33.6418 28.75 32.5833C28.75 31.5247 29.6081 30.6666 30.6667 30.6666C31.7252 30.6666 32.5833 31.5247 32.5833 32.5833ZM24.9167 32.5833C24.9167 33.6418 24.0585 34.4999 23 34.4999C21.9415 34.4999 21.0833 33.6418 21.0833 32.5833C21.0833 31.5247 21.9415 30.6666 23 30.6666C24.0585 30.6666 24.9167 31.5247 24.9167 32.5833ZM17.25 32.5833C17.25 33.6418 16.3919 34.4999 15.3333 34.4999C14.2748 34.4999 13.4167 33.6418 13.4167 32.5833C13.4167 31.5247 14.2748 30.6666 15.3333 30.6666C16.3919 30.6666 17.25 31.5247 17.25 32.5833ZM32.5833 24.9166C32.5833 25.9751 31.7252 26.8333 30.6667 26.8333C29.6081 26.8333 28.75 25.9751 28.75 24.9166C28.75 23.858 29.6081 22.9999 30.6667 22.9999C31.7252 22.9999 32.5833 23.858 32.5833 24.9166ZM24.9167 24.9166C24.9167 25.9751 24.0585 26.8333 23 26.8333C21.9415 26.8333 21.0833 25.9751 21.0833 24.9166C21.0833 23.858 21.9415 22.9999 23 22.9999C24.0585 22.9999 24.9167 23.858 24.9167 24.9166ZM17.25 24.9166C17.25 25.9751 16.3919 26.8333 15.3333 26.8333C14.2748 26.8333 13.4167 25.9751 13.4167 24.9166C13.4167 23.858 14.2748 22.9999 15.3333 22.9999C16.3919 22.9999 17.25 23.858 17.25 24.9166Z" fill="#D8DEF3"/>
</svg>
