<svg width="56" height="56" viewBox="0 0 56 56" fill="none" xmlns="http://www.w3.org/2000/svg">
<path d="M7.96652 30.3329C6.7488 30.3329 6.13896 28.8606 7.00002 27.9996L26.3504 8.64923C27.2615 7.73834 28.7385 7.73834 29.6497 8.64923L49 27.9996C49.8611 28.8606 49.2512 30.3329 48.0335 30.3329C47.2786 30.3329 46.6667 30.9449 46.6667 31.6997V48.9996C46.6667 50.2882 45.622 51.3329 44.3334 51.3329H40.8334C36.323 51.3329 32.6667 47.6766 32.6667 43.1662V39.6662C32.6667 37.0889 30.5774 34.9996 28 34.9996C25.4227 34.9996 23.3334 37.0889 23.3334 39.6662V43.1662C23.3334 47.6766 19.677 51.3329 15.1667 51.3329H11.6667C10.378 51.3329 9.33335 50.2882 9.33335 48.9996V31.6997C9.33335 30.9449 8.7214 30.3329 7.96652 30.3329Z" fill="url(#paint0_linear_10_330)"/>
<defs>
<linearGradient id="paint0_linear_10_330" x1="28.1609" y1="0.776299" x2="30.6749" y2="56.6938" gradientUnits="userSpaceOnUse">
<stop stop-color="#9C2CF3"/>
<stop offset="1" stop-color="#3A49F9"/>
</linearGradient>
</defs>
</svg>
