<svg width="50" height="50" viewBox="0 0 50 50" fill="none" xmlns="http://www.w3.org/2000/svg">
<path d="M25 45.8334C22.6988 45.8334 20.8333 43.9679 20.8333 41.6667H29.1666C29.1666 43.9679 27.3012 45.8334 25 45.8334ZM41.6666 39.5834H8.33331V35.4167L12.5 33.3334V21.8751C12.5 14.6626 15.4604 9.9855 20.8333 8.70841V8.33341C20.8333 6.03223 22.6988 4.16675 25 4.16675C27.3012 4.16675 29.1666 6.03223 29.1666 8.33341V8.70841C34.5396 9.98341 37.5 14.6584 37.5 21.8751V33.3334L41.6666 35.4167V39.5834ZM25 11.9792C22.4576 11.8151 20.0058 12.9527 18.4896 15.0001C17.1928 17.0512 16.5565 19.4509 16.6666 21.8751V34.4167C16.6666 34.969 17.1144 35.4167 17.6666 35.4167H32.3333C32.8856 35.4167 33.3333 34.969 33.3333 34.4167V21.8751C33.4433 19.4509 32.8071 17.0513 31.5104 15.0001C29.9942 12.9527 27.5423 11.8151 25 11.9792Z" fill="#D8DEF3"/>
</svg>
